<?xml version="1.0" encoding="UTF-8"?>
<svg id="Capa_1" data-name="Capa 1" xmlns="http://www.w3.org/2000/svg" viewBox="0 0 512 511.7">
  <defs>
    <style>
      .cls-1 {
        fill: #01fe4c;
      }
    </style>
  </defs>
  <path class="cls-1" d="m256,319.7c-35.3,0-64,28.7-64,64v128h128v-128c0-35.3-28.7-64-64-64Z"/>
  <g>
    <path class="cls-1" d="m362.7,383.7v128h85.3c35.3,0,64-28.7,64-64v-194.6c0-11.1-4.3-21.7-12-29.7L318.7,27.4c-32-34.6-86-36.7-120.6-4.7-1.6,1.5-3.2,3.1-4.7,4.7L12.4,223.3C4.5,231.3,0,242.2,0,253.4v194.3C0,483,28.7,511.7,64,511.7h85.3v-128c.4-58.2,47.4-105.7,104.1-107,58.6-1.4,108.8,46.9,109.3,107Z"/>
    <path class="cls-1" d="m256,319.7c-35.3,0-64,28.7-64,64v128h128v-128c0-35.3-28.7-64-64-64Z"/>
  </g>
</svg>