<svg xmlns="http://www.w3.org/2000/svg" xmlns:xlink="http://www.w3.org/1999/xlink" width="1528" zoomAndPan="magnify" viewBox="0 0 1146 278.999983" height="372" preserveAspectRatio="xMidYMid meet" version="1.0"><defs><g/><clipPath id="58efadb0eb"><path d="M 0 3 L 232.5 3 L 232.5 243 L 0 243 Z M 0 3 " clip-rule="nonzero"/></clipPath><clipPath id="023fdc2cbe"><path d="M 56 87 L 177 87 L 177 194.753906 L 56 194.753906 Z M 56 87 " clip-rule="nonzero"/></clipPath></defs><g clip-path="url(#58efadb0eb)"><path fill="#49ff2b" d="M 232.300781 90.609375 C 232.300781 80.390625 227.191406 70.835938 218.6875 65.15625 C 198.488281 51.6875 155.167969 22.839844 133.105469 8.128906 C 122.835938 1.300781 109.464844 1.300781 99.195312 8.128906 C 77.132812 22.839844 33.8125 51.6875 13.613281 65.15625 C 5.109375 70.835938 0 80.390625 0 90.609375 C 0 117.210938 0 177.867188 0 212.015625 C 0 220.132812 3.199219 227.917969 8.929688 233.648438 C 14.664062 239.378906 22.445312 242.578125 30.566406 242.578125 C 72.878906 242.578125 159.371094 242.578125 201.734375 242.578125 C 209.855469 242.578125 217.589844 239.378906 223.371094 233.648438 C 229.101562 227.917969 232.300781 220.132812 232.300781 212.015625 C 232.300781 177.867188 232.300781 117.210938 232.300781 90.609375 Z M 220.074219 90.609375 L 220.074219 212.015625 C 220.074219 216.886719 218.164062 221.519531 214.726562 225.003906 C 211.238281 228.441406 206.605469 230.355469 201.734375 230.355469 L 30.566406 230.355469 C 25.695312 230.355469 21.0625 228.441406 17.574219 225.003906 C 14.136719 221.519531 12.226562 216.886719 12.226562 212.015625 C 12.226562 177.867188 12.226562 117.210938 12.226562 90.609375 C 12.226562 84.496094 15.28125 78.765625 20.394531 75.328125 L 105.976562 18.304688 C 112.136719 14.195312 120.164062 14.195312 126.324219 18.304688 C 148.386719 33.011719 191.707031 61.859375 211.90625 75.328125 C 217.019531 78.765625 220.074219 84.496094 220.074219 90.609375 " fill-opacity="1" fill-rule="evenodd"/></g><g clip-path="url(#023fdc2cbe)"><path fill="#49ff2b" d="M 173.613281 109.007812 C 168.054688 95.6875 155.578125 86.785156 140.691406 87.792969 C 128.789062 88.597656 119.472656 97.5625 116.824219 108.523438 C 114.171875 97.5625 104.855469 88.597656 92.953125 87.792969 C 78.066406 86.785156 65.589844 95.6875 60.03125 109.007812 C 53.554688 124.535156 57.484375 141.683594 68.292969 154.421875 C 76.476562 164.058594 88.597656 168.792969 98.472656 176.46875 C 105.378906 181.84375 111.914062 187.214844 116.824219 194.453125 C 121.730469 187.214844 128.265625 181.84375 135.171875 176.46875 C 145.046875 168.792969 157.167969 164.058594 165.351562 154.421875 C 176.160156 141.683594 180.089844 124.535156 173.613281 109.007812 Z M 138.5 106.894531 C 138.601562 106.546875 138.722656 106.207031 138.863281 105.878906 C 140.089844 102.964844 142.421875 100.0625 145.257812 98.53125 C 147.617188 97.261719 150.960938 96.515625 152.816406 98.894531 C 155.738281 102.640625 153.226562 110.085938 150.011719 113.007812 C 148.15625 114.695312 145.101562 115.332031 142.714844 114.769531 C 141.175781 114.40625 139.765625 113.488281 138.960938 112.15625 C 138.027344 110.605469 137.992188 108.667969 138.5 106.894531 Z M 121.117188 112.539062 C 121.742188 110.75 122.648438 109.054688 123.785156 107.535156 C 124.773438 106.21875 125.984375 105.003906 127.515625 104.398438 C 128.90625 103.851562 130.660156 103.863281 131.871094 104.820312 C 132.597656 105.390625 133.0625 106.242188 133.328125 107.125 C 134.433594 110.808594 134.273438 115.964844 131.867188 119.109375 C 131.863281 119.113281 131.859375 119.117188 131.855469 119.121094 C 129.285156 122.460938 122.960938 121.765625 121.03125 118.011719 C 120.171875 116.34375 120.5 114.3125 121.117188 112.539062 Z M 147.910156 153.558594 C 145.453125 155.300781 141.992188 155.554688 139.269531 154.277344 C 137.621094 153.5 136.328125 152.304688 135.152344 150.972656 C 133.746094 149.378906 132.132812 148 130.363281 146.863281 C 128.589844 145.726562 126.664062 144.835938 124.628906 144.222656 C 122.925781 143.710938 121.300781 143.035156 119.910156 141.859375 C 117.609375 139.917969 116.402344 136.667969 116.957031 133.707031 C 117.46875 130.972656 119.4375 128.554688 122.011719 127.5 C 126.050781 125.847656 130.585938 127.066406 134.511719 124.816406 C 138.105469 122.757812 142.046875 119.257812 146.3125 121.996094 C 150.578125 124.730469 149.039062 129.773438 148.667969 133.898438 C 148.261719 138.402344 151.261719 142.011719 151.441406 146.375 C 151.558594 149.15625 150.183594 151.953125 147.910156 153.558594 Z M 153.726562 115.457031 C 155.085938 111.332031 160.859375 106.003906 165.472656 107.140625 C 168.402344 107.867188 169.082031 111.222656 168.882812 113.894531 C 168.640625 117.109375 166.945312 120.425781 164.785156 122.730469 C 164.539062 122.992188 164.277344 123.242188 164 123.476562 C 162.589844 124.664062 160.804688 125.421875 159.011719 125.199219 C 157.46875 125.007812 156.050781 124.097656 155.09375 122.839844 C 153.605469 120.890625 152.945312 117.839844 153.726562 115.457031 Z M 168.414062 137.617188 C 167.402344 139.222656 166.140625 140.671875 164.695312 141.898438 C 163.261719 143.109375 161.480469 144.144531 159.613281 143.941406 C 155.421875 143.484375 152.503906 137.824219 154.707031 134.226562 C 154.707031 134.222656 154.710938 134.21875 154.710938 134.214844 C 156.785156 130.84375 161.546875 128.847656 165.378906 128.5625 C 166.300781 128.492188 167.257812 128.621094 168.050781 129.09375 C 169.378906 129.882812 170.019531 131.515625 170.003906 133.011719 C 169.988281 134.65625 169.289062 136.222656 168.414062 137.617188 Z M 168.414062 137.617188 " fill-opacity="1" fill-rule="nonzero"/></g><g fill="#49ff2b" fill-opacity="1"><g transform="translate(263.259882, 205.947045)"><g><path d="M 110.078125 -78.453125 C 110.078125 -70.929688 108.273438 -64.40625 104.671875 -58.875 C 101.078125 -53.34375 96.015625 -49.085938 89.484375 -46.109375 C 82.960938 -43.140625 75.472656 -41.65625 67.015625 -41.65625 L 45.5625 -41.65625 C 44.3125 -41.65625 43.6875 -41.082031 43.6875 -39.9375 L 43.6875 -4.546875 C 43.6875 -2.867188 43.269531 -1.691406 42.4375 -1.015625 C 41.601562 -0.335938 40.296875 0 38.515625 0 L 12.21875 0 C 10.644531 0 9.570312 -0.3125 9 -0.9375 C 8.425781 -1.5625 8.140625 -2.554688 8.140625 -3.921875 L 8.140625 -112.59375 C 8.140625 -114.988281 9.132812 -116.1875 11.125 -116.1875 L 62.953125 -116.1875 C 71.722656 -116.1875 79.679688 -114.75 86.828125 -111.875 C 93.984375 -109.007812 99.644531 -104.757812 103.8125 -99.125 C 107.988281 -93.488281 110.078125 -86.597656 110.078125 -78.453125 Z M 73.75 -78.921875 C 73.75 -82.578125 72.492188 -85.523438 69.984375 -87.765625 C 67.484375 -90.015625 64.410156 -91.140625 60.765625 -91.140625 L 47.296875 -91.140625 C 45.929688 -91.140625 44.988281 -90.878906 44.46875 -90.359375 C 43.945312 -89.835938 43.6875 -89 43.6875 -87.84375 L 43.6875 -70.15625 C 43.6875 -68.90625 43.894531 -68.015625 44.3125 -67.484375 C 44.726562 -66.960938 45.410156 -66.703125 46.359375 -66.703125 L 61.703125 -66.703125 C 65.347656 -66.703125 68.265625 -67.875 70.453125 -70.21875 C 72.648438 -72.570312 73.75 -75.472656 73.75 -78.921875 Z M 73.75 -78.921875 "/></g></g></g><g fill="#49ff2b" fill-opacity="1"><g transform="translate(377.729113, 205.947045)"><g><path d="M 8.140625 -112.59375 C 8.140625 -114.988281 9.132812 -116.1875 11.125 -116.1875 L 95.671875 -116.1875 C 97.554688 -116.1875 98.5 -115.09375 98.5 -112.90625 L 98.34375 -94.734375 C 98.34375 -91.921875 96.984375 -90.515625 94.265625 -90.515625 L 47.296875 -90.515625 C 44.890625 -90.515625 43.6875 -89.519531 43.6875 -87.53125 L 43.6875 -74.21875 C 43.6875 -73.175781 43.945312 -72.367188 44.46875 -71.796875 C 44.988281 -71.222656 45.671875 -70.9375 46.515625 -70.9375 L 74.6875 -70.9375 C 76.882812 -70.9375 77.984375 -69.894531 77.984375 -67.8125 L 77.984375 -48.390625 C 77.984375 -46.609375 77.046875 -45.71875 75.171875 -45.71875 L 46.1875 -45.71875 C 45.457031 -45.71875 44.859375 -45.507812 44.390625 -45.09375 C 43.921875 -44.675781 43.6875 -44.15625 43.6875 -43.53125 L 43.6875 -27.875 C 43.6875 -27.039062 43.816406 -26.46875 44.078125 -26.15625 C 44.335938 -25.84375 44.832031 -25.6875 45.5625 -25.6875 L 96.46875 -25.6875 C 98.757812 -25.6875 99.90625 -24.691406 99.90625 -22.703125 L 99.90625 -3.4375 C 99.90625 -2.394531 99.59375 -1.5625 98.96875 -0.9375 C 98.34375 -0.3125 97.40625 0 96.15625 0 L 12.375 0 C 10.800781 0 9.703125 -0.3125 9.078125 -0.9375 C 8.453125 -1.5625 8.140625 -2.554688 8.140625 -3.921875 Z M 8.140625 -112.59375 "/></g></g></g><g fill="#49ff2b" fill-opacity="1"><g transform="translate(482.802801, 205.947045)"><g><path d="M 4.390625 -112.59375 C 4.390625 -113.632812 4.726562 -114.492188 5.40625 -115.171875 C 6.082031 -115.847656 7.046875 -116.1875 8.296875 -116.1875 L 101.9375 -116.1875 C 103.195312 -116.1875 104.164062 -115.847656 104.84375 -115.171875 C 105.519531 -114.492188 105.859375 -113.632812 105.859375 -112.59375 L 105.859375 -93.953125 C 105.859375 -91.972656 104.707031 -90.984375 102.40625 -90.984375 L 74.6875 -90.984375 C 73.4375 -90.984375 72.8125 -90.460938 72.8125 -89.421875 L 72.8125 -3.4375 C 72.8125 -2.289062 72.550781 -1.429688 72.03125 -0.859375 C 71.507812 -0.285156 70.78125 0 69.84375 0 L 40.09375 0 C 38.207031 0 37.265625 -1.039062 37.265625 -3.125 L 37.265625 -88.78125 C 37.265625 -90.25 36.691406 -90.984375 35.546875 -90.984375 L 7.984375 -90.984375 C 5.585938 -90.984375 4.390625 -91.972656 4.390625 -93.953125 Z M 4.390625 -112.59375 "/></g></g></g><g fill="#49ff2b" fill-opacity="1"><g transform="translate(593.044051, 205.947045)"><g><path d="M 77.359375 -85.03125 C 74.847656 -87.75 72.15625 -89.835938 69.28125 -91.296875 C 66.414062 -92.753906 62.269531 -93.484375 56.84375 -93.484375 C 51.414062 -93.484375 47.394531 -92.695312 44.78125 -91.125 C 42.175781 -89.5625 40.875 -87.6875 40.875 -85.5 C 40.875 -81.738281 44.210938 -79.078125 50.890625 -77.515625 L 76.890625 -70.78125 C 86.390625 -68.375 93.539062 -64.171875 98.34375 -58.171875 C 103.144531 -52.171875 105.546875 -44.992188 105.546875 -36.640625 C 105.546875 -28.921875 103.507812 -22.1875 99.4375 -16.4375 C 95.363281 -10.695312 89.539062 -6.257812 81.96875 -3.125 C 74.40625 0 65.5625 1.5625 55.4375 1.5625 C 43.945312 1.5625 33.476562 -0.335938 24.03125 -4.140625 C 14.582031 -7.953125 8.035156 -12.941406 4.390625 -19.109375 C 3.867188 -20.148438 3.609375 -20.929688 3.609375 -21.453125 C 3.609375 -22.492188 4.179688 -23.429688 5.328125 -24.265625 L 21.453125 -35.390625 C 22.597656 -36.117188 23.640625 -36.484375 24.578125 -36.484375 C 25.734375 -36.484375 26.675781 -36.015625 27.40625 -35.078125 C 30.957031 -30.484375 34.554688 -27.242188 38.203125 -25.359375 C 41.859375 -23.484375 46.710938 -22.546875 52.765625 -22.546875 C 58.617188 -22.546875 63.238281 -23.351562 66.625 -24.96875 C 70.019531 -26.59375 71.71875 -28.8125 71.71875 -31.625 C 71.71875 -33.613281 70.878906 -35.335938 69.203125 -36.796875 C 67.535156 -38.253906 65.085938 -39.351562 61.859375 -40.09375 L 38.046875 -45.875 C 28.648438 -48.175781 21.1875 -52.484375 15.65625 -58.796875 C 10.125 -65.117188 7.359375 -72.398438 7.359375 -80.640625 C 7.359375 -87.429688 9.34375 -93.671875 13.3125 -99.359375 C 17.28125 -105.046875 22.914062 -109.535156 30.21875 -112.828125 C 37.53125 -116.117188 45.988281 -117.765625 55.59375 -117.765625 C 64.988281 -117.765625 73.703125 -116.222656 81.734375 -113.140625 C 89.773438 -110.054688 95.570312 -105.957031 99.125 -100.84375 C 99.851562 -99.90625 100.21875 -99.019531 100.21875 -98.1875 C 100.21875 -97.457031 99.851562 -96.78125 99.125 -96.15625 L 82.0625 -83.78125 C 81.53125 -83.363281 80.953125 -83.15625 80.328125 -83.15625 C 79.597656 -83.15625 78.609375 -83.78125 77.359375 -85.03125 Z M 77.359375 -85.03125 "/></g></g></g><g fill="#49ff2b" fill-opacity="1"><g transform="translate(702.815511, 205.947045)"><g><path d="M 37.890625 -4.546875 C 37.890625 -2.867188 37.5 -1.691406 36.71875 -1.015625 C 35.9375 -0.335938 34.609375 0 32.734375 0 L 9.234375 0 C 7.671875 0 6.578125 -0.3125 5.953125 -0.9375 C 5.328125 -1.5625 5.015625 -2.554688 5.015625 -3.921875 L 5.015625 -28.03125 C 5.015625 -29.175781 5.273438 -30.035156 5.796875 -30.609375 C 6.316406 -31.179688 7.046875 -31.46875 7.984375 -31.46875 L 35.078125 -31.46875 C 36.953125 -31.46875 37.890625 -30.425781 37.890625 -28.34375 Z M 37.890625 -4.546875 "/></g></g></g><path stroke-linecap="butt" transform="matrix(0.69876, 0, 0, 0.69876, 729.39536, 73.80886)" fill="none" stroke-linejoin="miter" d="M 191.202387 24.714147 C 193.42731 24.714147 194.539771 25.971955 194.539771 28.493161 L 194.539771 186.949007 C 194.539771 188.156502 194.047828 189.140387 193.058353 189.906253 C 192.113599 190.632986 190.889333 191.001943 189.396734 191.001943 L 158.700631 191.001943 C 157.347789 191.001943 156.252098 190.783923 155.41356 190.342293 C 154.614153 189.867121 153.68058 188.97827 152.624021 187.66456 L 91.013794 104.05667 C 90.393276 103.290805 89.862201 102.97775 89.426161 103.123097 C 88.990121 103.268444 88.772101 103.726845 88.772101 104.49271 L 88.772101 186.076926 C 88.917448 187.860219 88.570852 189.140387 87.732313 189.906253 C 86.927316 190.632986 85.468259 191.001943 83.355142 191.001943 L 52.877059 191.001943 C 49.153947 191.001943 47.297982 189.503754 47.297982 186.512967 L 47.297982 29.857184 C 47.297982 26.430356 48.935927 24.714147 52.217408 24.714147 L 88.772101 24.714147 C 90.70633 24.714147 92.143026 24.971299 93.09337 25.480012 C 94.077255 25.994316 95.172946 27.084416 96.374851 28.767083 L 150.164308 103.61504 C 151.07552 104.92875 151.897288 105.588401 152.624021 105.588401 C 153.389886 105.588401 153.775614 104.621286 153.775614 102.687057 L 153.775614 29.421144 C 153.775614 26.285009 155.41356 24.714147 158.700631 24.714147 Z M 217.839964 29.857184 C 217.839964 26.430356 219.265479 24.714147 222.11092 24.714147 L 343.145583 24.714147 C 345.806546 24.714147 347.137027 26.285009 347.137027 29.421144 L 346.919007 55.41025 C 346.919007 59.463187 344.984778 61.48686 341.12191 61.48686 L 273.871114 61.48686 C 270.444286 61.48686 268.728077 62.890015 268.728077 65.696324 L 268.728077 84.742331 C 268.728077 86.234929 269.091444 87.403293 269.823767 88.241832 C 270.589633 89.08037 271.573518 89.49964 272.781013 89.49964 L 313.10354 89.49964 C 316.239674 89.49964 317.810537 90.975468 317.810537 93.932714 L 317.810537 121.727474 C 317.810537 124.282221 316.457694 125.5568 313.76319 125.5568 L 272.283481 125.5568 C 271.266054 125.5568 270.405154 125.869854 269.711962 126.490373 C 269.057902 127.07176 268.728077 127.804083 268.728077 128.676164 L 268.728077 151.109866 C 268.728077 152.317362 268.912555 153.13354 269.275922 153.57517 C 269.639289 154.01121 270.354842 154.22923 271.4114 154.22923 L 344.235683 154.22923 C 347.522755 154.22923 349.1607 155.654746 349.1607 158.500187 L 349.1607 186.076926 C 349.1607 187.569525 348.707889 188.777021 347.796677 189.688233 C 346.919007 190.560313 345.588526 191.001943 343.799643 191.001943 L 223.916574 191.001943 C 221.652519 191.001943 220.070477 190.560313 219.153674 189.688233 C 218.281594 188.777021 217.839964 187.351505 217.839964 185.417276 Z M 362.856831 29.857184 C 362.856831 28.364585 363.332003 27.140319 364.282346 26.195565 C 365.266232 25.20609 366.652616 24.714147 368.441498 24.714147 L 502.439968 24.714147 C 504.262392 24.714147 505.648775 25.20609 506.599119 26.195565 C 507.583004 27.140319 508.074947 28.364585 508.074947 29.857184 L 508.074947 56.505941 C 508.074947 59.351382 506.437002 60.771307 503.14993 60.771307 L 463.481464 60.771307 C 461.692581 60.771307 460.79814 61.520402 460.79814 63.01859 L 460.79814 186.076926 C 460.79814 187.714872 460.418003 188.955909 459.652138 189.794448 C 458.919814 190.599445 457.880026 191.001943 456.532774 191.001943 L 413.962964 191.001943 C 411.26287 191.001943 409.915618 189.503754 409.915618 186.512967 L 409.915618 63.946573 C 409.915618 61.833456 409.09385 60.771307 407.450314 60.771307 L 367.999868 60.771307 C 364.57304 60.771307 362.856831 59.351382 362.856831 56.505941 Z M 362.856831 29.857184 " stroke="#49ff2b" stroke-width="8.404613" stroke-opacity="1" stroke-miterlimit="4"/></svg>