<svg xmlns="http://www.w3.org/2000/svg" xmlns:xlink="http://www.w3.org/1999/xlink" width="310" zoomAndPan="magnify" viewBox="0 0 232.5 244.499991" height="326" preserveAspectRatio="xMidYMid meet" version="1.0"><defs><clipPath id="8d04467350"><path d="M 56 87 L 177 87 L 177 194.351562 L 56 194.351562 Z M 56 87 " clip-rule="nonzero"/></clipPath></defs><path fill="#49ff2b" d="M 231.800781 90.429688 C 231.800781 80.230469 226.703125 70.699219 218.21875 65.027344 C 198.0625 51.589844 154.835938 22.804688 132.820312 8.125 C 122.574219 1.3125 109.230469 1.3125 98.984375 8.125 C 76.964844 22.804688 33.742188 51.589844 13.582031 65.027344 C 5.097656 70.699219 0 80.230469 0 90.429688 C 0 116.972656 0 177.496094 0 211.570312 C 0 219.671875 3.191406 227.441406 8.910156 233.160156 C 14.628906 238.878906 22.398438 242.074219 30.5 242.074219 C 72.722656 242.074219 159.03125 242.074219 201.300781 242.074219 C 209.402344 242.074219 217.125 238.878906 222.890625 233.160156 C 228.609375 227.441406 231.800781 219.671875 231.800781 211.570312 C 231.800781 177.496094 231.800781 116.972656 231.800781 90.429688 Z M 219.601562 90.429688 L 219.601562 211.570312 C 219.601562 216.433594 217.695312 221.054688 214.265625 224.535156 C 210.785156 227.964844 206.164062 229.871094 201.300781 229.871094 L 30.5 229.871094 C 25.640625 229.871094 21.015625 227.964844 17.539062 224.535156 C 14.105469 221.054688 12.199219 216.433594 12.199219 211.570312 C 12.199219 177.496094 12.199219 116.972656 12.199219 90.429688 C 12.199219 84.328125 15.25 78.609375 20.347656 75.179688 L 105.75 18.277344 C 111.898438 14.179688 119.90625 14.179688 126.050781 18.277344 C 148.070312 32.953125 191.292969 61.738281 211.453125 75.179688 C 216.550781 78.609375 219.601562 84.328125 219.601562 90.429688 " fill-opacity="1" fill-rule="evenodd"/><g clip-path="url(#8d04467350)"><path fill="#49ff2b" d="M 173.242188 108.789062 C 167.695312 95.496094 155.242188 86.613281 140.390625 87.617188 C 128.511719 88.421875 119.214844 97.367188 116.570312 108.300781 C 113.929688 97.367188 104.628906 88.421875 92.753906 87.617188 C 77.902344 86.613281 65.449219 95.496094 59.902344 108.789062 C 53.441406 124.277344 57.363281 141.390625 68.148438 154.101562 C 76.3125 163.722656 88.410156 168.441406 98.261719 176.101562 C 105.152344 181.464844 111.675781 186.828125 116.570312 194.050781 C 121.46875 186.828125 127.992188 181.464844 134.882812 176.101562 C 144.734375 168.441406 156.832031 163.722656 164.996094 154.101562 C 175.78125 141.390625 179.703125 124.277344 173.242188 108.789062 Z M 138.203125 106.679688 C 138.304688 106.332031 138.425781 105.992188 138.5625 105.664062 C 139.789062 102.757812 142.117188 99.859375 144.945312 98.335938 C 147.300781 97.0625 150.636719 96.320312 152.488281 98.695312 C 155.402344 102.433594 152.898438 109.863281 149.6875 112.777344 C 147.839844 114.460938 144.789062 115.097656 142.40625 114.539062 C 140.875 114.175781 139.464844 113.257812 138.664062 111.925781 C 137.730469 110.382812 137.695312 108.449219 138.203125 106.679688 Z M 120.859375 112.3125 C 121.484375 110.523438 122.382812 108.832031 123.519531 107.316406 C 124.503906 106.003906 125.714844 104.789062 127.242188 104.1875 C 128.628906 103.640625 130.378906 103.652344 131.589844 104.609375 C 132.3125 105.179688 132.777344 106.023438 133.039062 106.90625 C 134.144531 110.582031 133.984375 115.730469 131.582031 118.867188 C 131.578125 118.871094 131.578125 118.875 131.574219 118.875 C 129.007812 122.210938 122.695312 121.515625 120.769531 117.773438 C 119.914062 116.105469 120.242188 114.078125 120.859375 112.3125 Z M 147.59375 153.242188 C 145.140625 154.980469 141.6875 155.234375 138.96875 153.957031 C 137.324219 153.183594 136.035156 151.992188 134.863281 150.664062 C 133.460938 149.070312 131.851562 147.691406 130.082031 146.558594 C 128.316406 145.425781 126.394531 144.539062 124.359375 143.925781 C 122.664062 143.414062 121.042969 142.742188 119.652344 141.570312 C 117.359375 139.632812 116.152344 136.386719 116.703125 133.433594 C 117.214844 130.703125 119.179688 128.292969 121.75 127.238281 C 125.78125 125.589844 130.304688 126.808594 134.222656 124.5625 C 137.808594 122.507812 141.742188 119.015625 145.996094 121.746094 C 150.253906 124.476562 148.722656 129.507812 148.347656 133.621094 C 147.941406 138.121094 150.9375 141.722656 151.117188 146.074219 C 151.234375 148.847656 149.859375 151.640625 147.59375 153.242188 Z M 153.398438 115.222656 C 154.753906 111.105469 160.515625 105.789062 165.117188 106.925781 C 168.039062 107.648438 168.71875 110.996094 168.519531 113.664062 C 168.28125 116.871094 166.585938 120.179688 164.429688 122.480469 C 164.1875 122.742188 163.925781 122.992188 163.648438 123.222656 C 162.242188 124.410156 160.460938 125.167969 158.671875 124.945312 C 157.128906 124.753906 155.714844 123.84375 154.761719 122.589844 C 153.277344 120.644531 152.617188 117.597656 153.398438 115.222656 Z M 168.050781 137.335938 C 167.042969 138.9375 165.785156 140.382812 164.339844 141.609375 C 162.910156 142.816406 161.132812 143.847656 159.273438 143.644531 C 155.085938 143.1875 152.175781 137.539062 154.375 133.953125 C 154.375 133.949219 154.378906 133.945312 154.378906 133.941406 C 156.449219 130.574219 161.199219 128.582031 165.023438 128.296875 C 165.941406 128.230469 166.898438 128.359375 167.691406 128.828125 C 169.015625 129.617188 169.65625 131.246094 169.640625 132.738281 C 169.625 134.382812 168.925781 135.945312 168.050781 137.335938 Z M 168.050781 137.335938 " fill-opacity="1" fill-rule="nonzero"/></g></svg>